<svg height="512" viewBox="0 0 512 512" width="512" xmlns="http://www.w3.org/2000/svg"><path d="m128 480a8 8 0 0 1 -8-8v-224a8 8 0 0 1 16 0v224a8 8 0 0 1 -8 8z" fill="#d18d28"/><path d="m384 472a8 8 0 0 1 -8-8v-240a8 8 0 0 1 16 0v240a8 8 0 0 1 -8 8z" fill="#d18d28"/><path d="m408 392h16v16h-16z" fill="#c0f5f9"/><path d="m408 424h16v32h-16z" fill="#c0f5f9"/><path d="m152 432h16v24h-16z" fill="#c0f5f9"/><path d="m152 384h16v32h-16z" fill="#c0f5f9"/><path d="m352 328a18.085 18.085 0 0 0 -13.088-15.914 27.509 27.509 0 0 0 -21.34 2.971l-7.852 4.711a57.761 57.761 0 0 1 -29.72 8.232l13.179 13.179a18.666 18.666 0 0 0 23.554 2.332 27.687 27.687 0 0 1 24.113-3.229l11.154 3.718z" fill="#de9a9e"/><path d="m456 272 17.9 23.862a11.728 11.728 0 0 1 -1.089 15.33l-.2.2a12.13 12.13 0 0 1 -17.175.037l-7.436-7.429v40l24 24 9.941 19.882a11.75 11.75 0 0 1 -6.794 16.4 11.751 11.751 0 0 1 -14.863-7.431l-4.284-12.851-32-16h-48l-32 16-10.948 24.424a10.314 10.314 0 0 1 -13.195 3.5l-.2-.1a10.63 10.63 0 0 1 -5.592-12.091c2.371-9.477 13.935-31.733 13.935-31.733l16-8v-12.686a27.315 27.315 0 0 1 8-19.314 27.315 27.315 0 0 1 19.314-8h30.179a14.507 14.507 0 0 0 14.507-14.507 31.1 31.1 0 0 1 25-30.493z" fill="#ffb1b5"/><path d="m240 224h32v240h-32z" fill="#fbb540"/><path d="m40 456h432v32h-432z" fill="#fd9226"/><path d="m40 472h432v16h-432z" fill="#e08122"/><path d="m272 280-32 16v-40h32z" fill="#f55648"/><path d="m272 360-32 16v-40l32-16z" fill="#f55648"/><path d="m272 456h-32v-40l32-16z" fill="#f55648"/><path d="m56 312a8 8 0 0 1 -5.657-13.657 35.082 35.082 0 0 1 24.97-10.343h4.687a8 8 0 0 1 0 16h-4.687a19.187 19.187 0 0 0 -13.656 5.657 7.976 7.976 0 0 1 -5.657 2.343z" fill="#fbedbf"/><path d="m488.005 274.294a8 8 0 0 1 -7.24-4.588l-2-4.238a19.183 19.183 0 0 0 -10.943-9.938 8 8 0 1 1 5.406-15.06 35.089 35.089 0 0 1 20.008 18.171l2 4.238a8 8 0 0 1 -7.23 11.415z" fill="#fbedbf"/><path d="m96 216h320v40h-320z" fill="#8dc79d"/><path d="m96 224h320v16h-320z" fill="#6b9777"/><g fill="#c38325"><path d="m376 256h16v16h-16z"/><path d="m120 256h16v16h-16z"/><path d="m376 440h16v16h-16z"/><path d="m120 440h16v16h-16z"/><path d="m376 368h16v16h-16z"/><path d="m120 384h16v16h-16z"/></g><path d="m96 346.982a18.084 18.084 0 0 0 -13.088-15.914 27.5 27.5 0 0 0 -21.34 2.971l-7.852 4.711a57.771 57.771 0 0 1 -29.72 8.232l13.179 13.178a18.667 18.667 0 0 0 23.554 2.333 27.684 27.684 0 0 1 24.113-3.229l11.154 3.718z" fill="#3775a4"/><path d="m200 290.982 17.9 23.861a11.728 11.728 0 0 1 -1.089 15.33l-.2.2a12.13 12.13 0 0 1 -17.175.036l-7.436-7.427v40l24 24 9.941 19.882a11.75 11.75 0 0 1 -6.794 16.4 11.75 11.75 0 0 1 -14.863-7.432l-4.284-12.85-32-16h-48l-32 16-10.948 24.423a10.314 10.314 0 0 1 -13.2 3.505l-.2-.1a10.629 10.629 0 0 1 -5.592-12.091c2.376-9.481 13.94-31.737 13.94-31.737l16-8v-12.682a27.313 27.313 0 0 1 8-19.313 27.311 27.311 0 0 1 19.314-8h30.179a14.507 14.507 0 0 0 14.507-14.512 31.1 31.1 0 0 1 25-30.493z" fill="#6cbae5"/><path d="m312 40-56 16v-32z" fill="#f55648"/><path d="m256 104a8 8 0 0 1 -8-8v-72a8 8 0 0 1 16 0v72a8 8 0 0 1 -8 8z" fill="#d18d28"/><path d="m72 224 62.468-49.59a655.979 655.979 0 0 0 107.032-88.405l13.7-14.005 11.018 11.408a656.064 656.064 0 0 0 111.621 92.557l62.161 48.035z" fill="#8dc79d"/><path d="m256 72-56 152h115.186z" fill="#fd9226"/><path d="m312 224h-112a63.877 63.877 0 0 1 15.8-42.062l40.2-45.938 40.2 45.938a63.877 63.877 0 0 1 15.8 42.062z" fill="#f3af3e"/><path d="m200 224h-112a63.877 63.877 0 0 1 15.8-42.062l40.2-45.938 40.2 45.938a63.877 63.877 0 0 1 15.8 42.062z" fill="#f3af3e"/><path d="m424 224h-112a63.877 63.877 0 0 1 15.8-42.062l40.2-45.938 40.2 45.938a63.877 63.877 0 0 1 15.8 42.062z" fill="#f3af3e"/><path d="m464 224h-40a70.519 70.519 0 0 1 24.082-53.072l39.918-34.928-15.573 41.528a132.34 132.34 0 0 0 -8.427 46.472z" fill="#f3af3e"/><path d="m48 224h40a70.519 70.519 0 0 0 -24.082-53.072l-39.918-34.928 11.4 26.587a155.905 155.905 0 0 1 12.6 61.413z" fill="#f3af3e"/><path d="m232 224a57.94 57.94 0 0 1 16.971-40.971l7.029-7.029 7.029 7.029a57.94 57.94 0 0 1 16.971 40.971z" fill="#d18d28"/><path d="m120 224a57.94 57.94 0 0 1 16.971-40.971l7.029-7.029 7.029 7.029a57.94 57.94 0 0 1 16.971 40.971z" fill="#d18d28"/><path d="m344 224a57.94 57.94 0 0 1 16.971-40.971l7.029-7.029 7.029 7.029a57.94 57.94 0 0 1 16.971 40.971z" fill="#d18d28"/></svg>